HIERARCHY
ROOT Hips
{
	OFFSET 0.000000 8.830580 0.000000
	CHANNELS 6 Xposition Yposition Zposition Zrotation Yrotation Xrotation 
	JOINT Spine
	{
		OFFSET 0.000000 0.010000 0.000000
		CHANNELS 3 Zrotation Yrotation Xrotation
		JOINT Spine1
		{
			OFFSET 0.000000 2.459130 0.000000
			CHANNELS 3 Zrotation Yrotation Xrotation
			JOINT Neck
			{
				OFFSET 0.000000 2.484630 0.000000
				CHANNELS 3 Zrotation Yrotation Xrotation
				JOINT Head_virtual
				{
					OFFSET 0.000000 0.000000 0.000000
					CHANNELS 3 Zrotation Yrotation Xrotation
					JOINT Head
					{
						OFFSET 0.000000 0.927525 0.000000
						CHANNELS 3 Zrotation Yrotation Xrotation
						End Site
						{
							OFFSET 0.000000 0.000000 0.000000
						}
					}
				}
				JOINT LeftUpArm_virtual
				{
					OFFSET 0.000000 0.000000 0.000000
					CHANNELS 3 Zrotation Yrotation Xrotation
					JOINT LeftUpArm
					{
						OFFSET 1.248820 0.000000 0.000000
						CHANNELS 3 Zrotation Yrotation Xrotation
						JOINT LeftForeArm
						{
							OFFSET 2.597580 0.000000 0.000000
							CHANNELS 3 Zrotation Yrotation Xrotation
							JOINT LeftHand
							{
								OFFSET 2.455420 0.000000 0.000000
								CHANNELS 3 Zrotation Yrotation Xrotation
								End Site
								{
									OFFSET 0.000000 0.000000 0.000000
								}
							}
						}
					}
				}
				JOINT RightUpArm_virtual
				{
					OFFSET -0.000000 -0.000000 -0.000000
					CHANNELS 3 Zrotation Yrotation Xrotation
					JOINT RightUpArm
					{
						OFFSET -1.248820 -0.000000 -0.000000
						CHANNELS 3 Zrotation Yrotation Xrotation
						JOINT RightForeArm
						{
							OFFSET -2.597580 -0.000000 -0.000000
							CHANNELS 3 Zrotation Yrotation Xrotation
							JOINT RightHand
							{
								OFFSET -2.455420 -0.000000 -0.000000
								CHANNELS 3 Zrotation Yrotation Xrotation
								End Site
								{
									OFFSET 0.000000 0.000000 0.000000
								}
							}
						}
					}
				}
			}
		}
	}
	JOINT LeftUpLeg
	{
		OFFSET 1.271939 0.000000 0.000000
		CHANNELS 3 Zrotation Yrotation Xrotation
		JOINT LeftLowLeg
		{
			OFFSET 0.000000 -4.342910 0.000000
			CHANNELS 3 Zrotation Yrotation Xrotation
			JOINT LeftFoot
			{
				OFFSET 0.000000 -4.487670 0.000000
				CHANNELS 3 Zrotation Yrotation Xrotation
				JOINT LeftToeBase
				{
					OFFSET 0.000000 0.000000 1.515070
					CHANNELS 3 Zrotation Yrotation Xrotation
					End Site
					{
						OFFSET 0.000000 0.000000 0.000000
					}
				}
			}
		}
	}
	JOINT RightUpLeg
	{
		OFFSET -1.271939 0.000000 0.000000
		CHANNELS 3 Zrotation Yrotation Xrotation
		JOINT RightLowLeg
		{
			OFFSET 0.000000 -4.342910 0.000000
			CHANNELS 3 Zrotation Yrotation Xrotation
			JOINT RightFoot
			{
				OFFSET 0.000000 -4.487670 0.000000
				CHANNELS 3 Zrotation Yrotation Xrotation
				JOINT RightToeBase
				{
					OFFSET 0.000000 0.000000 1.515070
					CHANNELS 3 Zrotation Yrotation Xrotation
					End Site
					{
						OFFSET 0.000000 0.000000 0.000000
					}
				}
			}
		}
	}
}
MOTION
Frames: 11
Frame Time: 0.041667
-17.423736 8.991888 35.274684 -176.653259 -2.002432 -164.639076 5.740391 0.192279 -23.460839 -2.291491 1.510014 10.309420 0.000000 0.000000 0.000000 3.273082 6.994909 -12.958353 -18.892849 -10.568320 -80.308378 -28.291800 -0.001796 10.909800 -47.391602 -1.461050 4.442860 0.000000 -7.029240 0.000000 2.841120 15.762000 30.391001 30.375299 -5.305510 4.574960 45.166698 -3.074610 9.507996 0.000000 9.512030 0.000000 5.333450 -9.324860 25.957199 8.253801 -24.223791 -13.598516 0.000000 0.000000 5.761850 -3.851743 19.221619 -4.549622 0.000000 0.000000 -10.547360 2.845375 24.912647 -9.785730 0.000000 0.000000 4.401560 2.590056 -31.035269 1.604887 0.000000 0.000000 -19.598630 
-17.425819 8.990621 35.281434 -176.664406 -1.957326 -164.628541 5.740928 0.280939 -23.641701 -2.410981 1.582690 10.227244 0.000000 0.000000 0.000000 3.384969 7.104226 -12.368819 -18.969045 -10.342817 -79.984381 -28.844400 -0.353654 11.337800 -45.768700 -3.563490 5.335560 0.000000 -8.370050 0.000000 6.148170 13.679200 27.300600 30.786800 -5.123840 4.661050 44.108002 -1.747840 10.309998 0.000000 11.144600 0.000000 2.874650 -7.883110 21.266600 8.223444 -24.130893 -13.626199 0.000000 0.000000 5.739380 -3.861237 19.169085 -4.548166 0.000000 0.000000 -10.535250 2.699620 25.482049 -9.834315 0.000000 0.000000 4.322220 2.752135 -31.498555 1.508281 0.000000 0.000000 -19.531100 
-17.425451 8.988737 35.284358 -176.640039 -2.130153 -164.696951 5.739189 0.222784 -23.899291 -2.453721 1.564323 10.347199 0.000000 0.000000 0.000000 3.395457 7.234587 -11.977338 -18.927124 -10.082694 -79.611837 -29.318199 -0.719373 11.641900 -44.162899 -5.650470 5.893910 0.000000 -10.015900 0.000000 9.366000 12.144700 24.495399 31.010000 -4.896650 4.708650 43.319500 -0.122362 10.290009 0.000000 12.242300 0.000000 0.208076 -5.834410 16.956800 8.300171 -24.286520 -13.622223 0.000000 0.000000 5.733820 -3.957043 19.102292 -4.614923 0.000000 0.000000 -10.518440 2.799036 25.338856 -9.738201 0.000000 0.000000 4.281070 2.780926 -31.513835 1.466530 0.000000 0.000000 -19.520830 
-17.426163 8.987381 35.287755 -176.641796 -2.207494 -164.766866 5.726242 0.213807 -24.166380 -2.525178 1.597374 10.482219 0.000000 0.000000 0.000000 3.487392 7.346403 -11.593733 -18.863953 -9.828675 -79.243808 -29.777599 -1.142700 11.913500 -42.515099 -7.691960 6.222700 0.000000 -11.840100 0.000000 12.200000 11.002100 22.011600 31.286900 -4.644630 4.748490 42.394100 1.371810 10.575012 0.000000 13.747500 0.000000 -2.712420 -4.255580 12.473800 8.255593 -24.144862 -13.526736 0.000000 0.000000 5.631690 -3.941089 18.877279 -4.573895 0.000000 0.000000 -10.518450 2.834278 25.287560 -9.674710 0.000000 0.000000 4.278810 2.835536 -31.523727 1.404504 0.000000 0.000000 -19.515700 
-17.427082 8.986654 35.289024 -176.655390 -2.200530 -164.891103 5.704599 0.230613 -24.464012 -2.609044 1.671756 10.733823 0.000000 0.000000 0.000000 3.625339 7.436447 -11.311992 -18.793041 -9.564390 -78.855183 -30.101601 -1.571580 12.174500 -40.972401 -9.796760 6.152160 0.000000 -13.741300 0.000000 14.402800 10.193400 20.388100 31.537201 -4.337050 4.752720 41.437099 2.851810 10.889008 0.000000 15.398800 0.000000 -5.441720 -3.163250 8.468370 8.247450 -24.458396 -13.428361 0.000000 0.000000 5.648160 -4.012301 19.142349 -4.628433 0.000000 0.000000 -10.471390 2.859598 25.339309 -9.550465 0.000000 0.000000 4.285130 2.883370 -31.562168 1.353558 0.000000 0.000000 -19.514720 
-17.426676 8.986358 35.289542 -176.656016 -2.174750 -165.181366 5.652307 0.234051 -24.581018 -2.649059 1.748345 10.917345 0.000000 0.000000 0.000000 3.693032 7.573759 -10.938972 -18.599459 -9.319663 -78.512705 -30.304501 -2.019430 12.360600 -39.569599 -11.824400 5.830290 0.000000 -15.667500 0.000000 15.783500 9.648800 19.123800 31.703699 -4.061660 4.767020 40.567600 4.383320 10.949005 0.000000 17.015200 0.000000 -7.536500 -2.682670 6.140120 8.118410 -24.503016 -13.069709 0.000000 0.000000 5.565540 -4.009270 19.162874 -4.601476 0.000000 0.000000 -10.496480 2.985795 25.393497 -9.246426 0.000000 0.000000 4.302390 2.886951 -31.612987 1.331984 0.000000 0.000000 -19.496810 
-17.428665 8.986354 35.292146 -176.652070 -2.219345 -165.267149 5.649636 0.252618 -24.827658 -2.727210 1.785785 10.981100 0.000000 0.000000 0.000000 3.910560 7.628238 -10.565328 -18.526932 -9.099319 -78.148996 -30.373600 -2.423280 12.364100 -38.379902 -13.794000 5.555570 0.000000 -17.539499 0.000000 16.375700 9.404320 17.938601 31.767300 -3.777950 4.805010 39.800598 5.913130 10.824005 0.000000 18.572001 0.000000 -8.790160 -2.387730 3.652260 8.103027 -24.585248 -13.024404 0.000000 0.000000 5.594210 -4.018968 19.177415 -4.602306 0.000000 0.000000 -10.491300 3.015129 25.380632 -9.182857 0.000000 0.000000 4.332380 2.932599 -31.628256 1.305658 0.000000 0.000000 -19.497660 
-17.429488 8.986875 35.293851 -176.644229 -2.206914 -165.458798 5.622683 0.263738 -24.959782 -2.766730 1.833791 11.007908 0.000000 0.000000 0.000000 4.092652 7.684865 -10.133003 -18.429129 -8.927266 -77.847549 -30.307199 -2.843740 12.285900 -37.431702 -15.656000 5.122230 0.000000 -19.357800 0.000000 16.242001 9.288180 16.698601 31.789101 -3.472120 4.831970 39.050598 7.422440 10.657013 0.000000 20.128300 0.000000 -9.457830 -2.244590 3.819960 8.022541 -24.604606 -12.831001 0.000000 0.000000 5.605590 -4.054426 19.162963 -4.605927 0.000000 0.000000 -10.487670 3.089380 25.440707 -9.013967 0.000000 0.000000 4.382530 2.960978 -31.671919 1.298869 0.000000 0.000000 -19.516420 
-17.429750 8.987812 35.295335 -176.631721 -2.168848 -165.656663 5.570709 0.227770 -25.068111 -2.694892 1.885061 11.028143 0.000000 0.000000 0.000000 4.119217 7.758042 -9.768696 -18.242632 -8.782963 -77.541697 -30.209000 -3.231940 12.123400 -36.655800 -17.452600 4.716950 0.000000 -21.056200 0.000000 15.845200 8.960460 16.605900 31.733101 -3.175030 4.890950 38.347301 8.969170 10.527008 0.000000 21.612700 0.000000 -9.511350 -2.631200 4.206770 7.942617 -24.629012 -12.629686 0.000000 0.000000 5.628860 -4.047699 19.195935 -4.591702 0.000000 0.000000 -10.495090 3.174630 25.465828 -8.846356 0.000000 0.000000 4.451230 2.976897 -31.651492 1.311623 0.000000 0.000000 -19.515660 
-17.430600 8.988752 35.297089 -176.616444 -2.144909 -165.800316 5.528025 0.200695 -25.194265 -2.625648 1.931429 10.989321 0.000000 0.000000 0.000000 4.147007 7.801070 -9.407329 -17.980388 -8.684903 -77.236291 -30.075800 -3.668010 12.041700 -36.017101 -19.166599 4.074190 0.000000 -22.722099 0.000000 15.037300 9.007320 16.476299 31.600800 -2.844350 4.849680 37.801300 10.426100 10.380005 0.000000 22.771200 0.000000 -9.026320 -2.743560 4.815220 7.890427 -24.645227 -12.506492 0.000000 0.000000 5.679040 -4.068575 19.202218 -4.595693 0.000000 0.000000 -10.484620 3.210910 25.683464 -8.759744 0.000000 0.000000 4.541870 3.043127 -31.823633 1.285933 0.000000 0.000000 -19.527400 
-17.431880 8.989813 35.299766 -176.605537 -2.084589 -165.909620 5.472470 0.175266 -25.273926 -2.518967 1.987198 10.847203 0.000000 0.000000 0.000000 4.183760 7.814427 -9.026946 -17.728467 -8.646956 -76.990081 -29.939301 -4.049020 11.990600 -35.563000 -20.832399 3.298790 0.000000 -24.217199 0.000000 14.413600 8.828110 16.735100 31.442301 -2.552030 4.882930 37.278900 11.810200 10.345001 0.000000 23.915701 0.000000 -8.281700 -2.743370 5.308970 7.837311 -24.632655 -12.425006 0.000000 0.000000 5.746840 -4.073852 19.221653 -4.592317 0.000000 0.000000 -10.502640 3.245939 25.643316 -8.684422 0.000000 0.000000 4.581420 3.059655 -31.715008 1.319105 0.000000 0.000000 -19.579790 
